Coordinates
version=1
nRows=11
nColumns=40
inDegrees=yes

Units are S.I. units (second, meters, Newtons, ...)
Angles are in degrees.

endheader
time	pelvis_tilt	pelvis_list	pelvis_rotation	pelvis_tx	pelvis_ty	pelvis_tz	hip_flexion_r	hip_adduction_r	hip_rotation_r	knee_angle_r	knee_angle_r_beta	ankle_angle_r	subtalar_angle_r	mtp_angle_r	hip_flexion_l	hip_adduction_l	hip_rotation_l	knee_angle_l	knee_angle_l_beta	ankle_angle_l	subtalar_angle_l	mtp_angle_l	lumbar_extension	lumbar_bending	lumbar_rotation	arm_flex_r	arm_add_r	arm_rot_r	elbow_flex_r	pro_sup_r	wrist_flex_r	wrist_dev_r	arm_flex_l	arm_add_l	arm_rot_l	elbow_flex_l	pro_sup_l	wrist_flex_l	wrist_dev_l
      2.45000000	     -5.40205641	     -6.01038028	     -1.07691191	      0.97326792	      0.93001921	      0.48603511	     13.56722418	      3.57209254	    -19.44052064	     14.88810507	     14.88810507	      9.80007783	      7.38429507	     -3.57364805	     30.99909133	    -14.90245339	     -2.38860406	     66.17745737	     66.17745737	     12.58062221	    -18.39640896	     12.15041087	    -12.29761574	      9.00856367	      3.06964721	     21.72973522	    -13.93559687	     -5.19624960	     36.47759045	     44.31339978	      0.00000000	      0.00000000	     -1.25845860	     -6.31589030	     -5.16686679	     37.48670731	     44.34805510	      0.00000000	      0.00000000
      2.46128571	     -5.54039265	     -5.93080420	     -0.94137363	      0.97135302	      0.93012646	      0.48665679	     12.95140506	      3.65491024	    -19.26228318	     14.40512903	     14.40512903	     10.01362408	      7.16735340	     -3.59107191	     32.61767146	    -14.71877468	     -2.19324755	     64.85263402	     64.85263402	     12.55390867	    -18.55156841	     12.28587344	    -12.31471745	      8.90671347	      2.95020036	     24.05039782	    -13.67483330	     -5.10322505	     38.08317420	     44.28326886	      0.00000000	      0.00000000	     -2.68181380	     -6.20129151	     -4.89302670	     36.44617277	     44.32330520	      0.00000000	      0.00000000
      2.47257143	     -5.67664669	     -5.81725172	     -0.85878331	      0.96946688	      0.93011518	      0.48724702	     12.41004403	      3.66879347	    -19.08684305	     14.06595618	     14.06595618	     10.29475516	      7.02313093	     -3.64924826	     34.05831803	    -14.51474509	     -2.12425746	     63.31817289	     63.31817289	     12.47103984	    -18.63617146	     12.51091506	    -12.35619498	      8.76658868	      3.36174919	     26.21438529	    -13.82625147	     -5.08456524	     39.32397350	     44.25801156	      0.00000000	      0.00000000	     -3.86613576	     -5.96446174	     -4.72905216	     35.69084462	     44.29864711	      0.00000000	      0.00000000
      2.48385714	     -5.71860879	     -5.81750783	     -0.66561995	      0.96775841	      0.93022718	      0.48778275	     11.63254942	      3.87372760	    -18.79300635	     13.44346801	     13.44346801	     10.37340391	      6.52496704	     -3.72943197	     35.26810316	    -14.30414114	     -1.86601565	     61.53926564	     61.53926564	     12.43485267	    -18.67539775	     13.03856438	    -12.46497695	      8.77736187	      2.84606021	     28.43198916	    -13.31726168	     -4.65437192	     41.72584433	     44.18628469	      0.00000000	      0.00000000	     -5.19110559	     -5.93133982	     -4.33455602	     34.06913986	     44.26951715	      0.00000000	      0.00000000
      2.49514286	     -5.77181864	     -5.73753814	     -0.48313994	      0.96608218	      0.93020323	      0.48814120	     10.91881691	      3.95196288	    -18.54901114	     12.92290598	     12.92290598	     10.52798551	      6.16585916	     -3.88175739	     36.33796671	    -13.95460224	     -1.65858659	     59.55575871	     59.55575871	     12.31804702	    -18.72816695	     13.60339132	    -12.59228245	      8.68167085	      2.84920217	     30.37325610	    -13.22609564	     -4.26261927	     43.84370290	     44.12495120	      0.00000000	      0.00000000	     -6.22216258	     -5.80950297	     -4.00853468	     32.77587236	     44.24702867	      0.00000000	      0.00000000
      2.50642857	     -5.85521092	     -5.71503935	     -0.29065695	      0.96445792	      0.93000195	      0.48839074	     10.24790350	      4.09445761	    -18.22629295	     12.38529601	     12.38529601	     10.44352088	      5.56514271	     -4.64495524	     37.34685028	    -13.60214960	     -1.37553732	     57.40779317	     57.40779317	     12.24972772	    -18.65508360	     14.41797743	    -12.68522277	      8.66888380	      3.53370881	     31.18476718	    -14.20941939	     -2.81941627	     48.10337129	     44.01622091	      0.00000000	      0.00000000	     -6.49188948	     -5.69042874	     -3.13029286	     30.59829307	     44.26013212	      0.00000000	      0.00000000
      2.51771429	     -5.90885965	     -5.62717095	     -0.05587372	      0.96292909	      0.92977489	      0.48841387	      9.58447739	      4.09007030	    -18.16745702	     11.98992031	     11.98992031	     10.71533013	      5.44406960	     -4.68543068	     38.14553654	    -13.09363136	     -1.07201574	     54.96565488	     54.96565488	     11.94412809	    -18.59285572	     14.72301991	    -12.77059382	      8.56425168	      3.44445314	     33.22949335	    -14.01495910	     -2.85819546	     49.63960366	     43.98858877	      0.00000000	      0.00000000	     -7.52986797	     -5.63757540	     -2.95956943	     29.90219470	     44.23831919	      0.00000000	      0.00000000
      2.52900000	     -5.95985825	     -5.67758021	      0.22445487	      0.96154944	      0.92941228	      0.48835927	      8.83394356	      4.27591768	    -18.03335668	     11.41707824	     11.41707824	     10.76908747	      5.10046149	     -5.08288250	     38.82356845	    -12.69115845	     -0.68816762	     52.28376641	     52.28376641	     11.29443741	    -18.36720472	     14.01570367	    -12.88230574	      8.63435014	      3.62326035	     34.16568897	    -14.41754220	     -2.37497617	     53.97568236	     43.92243973	      0.00000000	      0.00000000	     -8.16278543	     -5.64322516	     -2.17748443	     28.52181665	     44.23029515	      0.00000000	      0.00000000
      2.54028571	     -6.00181312	     -5.62184104	      0.52943076	      0.96023383	      0.92903936	      0.48805047	      8.12924002	      4.28574997	    -18.05206820	     10.99728349	     10.99728349	     11.04310817	      5.02761776	     -5.13283585	     39.34024711	    -12.08470786	     -0.26108824	     49.39705169	     49.39705169	     10.91153665	    -17.99414964	     14.20277273	    -12.93467561	      8.57310557	      3.29515831	     36.04958134	    -14.02886279	     -2.41943648	     55.80276893	     43.88779014	      0.00000000	      0.00000000	     -9.11249191	     -5.65176190	     -1.97218571	     27.82444677	     44.20595857	      0.00000000	      0.00000000
      2.55157143	     -6.18935545	     -5.83259550	      0.79804813	      0.95894993	      0.92811337	      0.48782001	      7.73550792	      4.52839756	    -18.15237972	     10.89775860	     10.89775860	     11.42501793	      4.93635400	     -5.28217834	     40.03864783	    -11.79826268	      0.25545942	     46.55367881	     46.55367881	     10.83234590	    -16.97147715	     14.40710565	    -12.71135800	      8.81257428	      3.62594472	     37.73132506	    -14.25819411	     -2.54630992	     56.77284379	     43.87170981	      0.00000000	      0.00000000	     -9.86397399	     -5.68425045	     -1.94178522	     27.48735674	     44.19478225	      0.00000000	      0.00000000
      2.56285714	     -6.18695608	     -5.78247163	      1.19396274	      0.95800696	      0.92771647	      0.48721120	      6.67465481	      4.60718017	    -18.36567502	      9.91647687	      9.91647687	     11.47900769	      5.25445623	     -5.44849448	     40.13123891	    -11.15282701	      0.66468602	     43.10148469	     43.10148469	      9.56491040	    -16.33198444	     12.37231614	    -12.98048549	      8.76470296	      3.04405112	     38.29632966	    -14.06764001	     -2.20075432	     63.27702538	     43.70500562	      0.00000000	      0.00000000	    -10.55940502	     -5.65888727	     -1.22165524	     26.33921207	     44.14741645	      0.00000000	      0.00000000
